<?xml version="1.0" standalone="no"?>
<!DOCTYPE svg PUBLIC "-//W3C//DTD SVG 20010904//EN"
 "http://www.w3.org/TR/2001/REC-SVG-20010904/DTD/svg10.dtd">
<svg version="1.0" xmlns="http://www.w3.org/2000/svg"
 width="500.000000pt" height="500.000000pt" viewBox="0 0 500.000000 500.000000"
 preserveAspectRatio="xMidYMid meet">

<g transform="translate(0.000000,500.000000) scale(0.100000,-0.100000)"
fill="#000000" stroke="none">
<path d="M0 2500 l0 -2500 2500 0 2500 0 0 2500 0 2500 -2500 0 -2500 0 0
-2500z m3943 480 c34 -38 35 -79 2 -118 -33 -39 -74 -48 -115 -27 -67 35 -71
126 -6 166 41 26 83 18 119 -21z m-2940 -254 c21 -8 47 -22 57 -31 17 -16 19
-15 22 7 2 13 6 22 11 21 4 -2 39 -3 77 -3 l70 0 0 -235 0 -235 -80 0 c-79 0
-80 0 -80 26 l0 25 -36 -28 c-29 -21 -50 -28 -99 -31 -110 -7 -187 37 -231
133 -78 167 36 364 211 364 22 0 57 -6 78 -13z m630 0 c21 -8 47 -22 58 -32
18 -16 19 -16 19 4 0 21 5 22 80 22 l80 0 0 -275 c0 -253 -2 -279 -19 -314
-26 -49 -77 -94 -134 -116 -66 -25 -225 -18 -283 13 -45 23 -94 75 -94 98 0 8
28 27 63 43 l62 29 28 -26 c25 -23 37 -27 92 -27 56 0 68 3 91 26 16 16 28 41
31 67 l6 41 -39 -19 c-48 -25 -158 -27 -212 -4 -114 47 -172 195 -127 325 33
94 122 158 220 158 22 0 57 -6 78 -13z m665 -1 c97 -29 159 -107 164 -206 l3
-54 -173 -3 -173 -2 6 -23 c20 -68 124 -92 184 -42 l30 26 63 -32 63 -32 -51
-46 c-60 -55 -105 -71 -202 -71 -57 0 -79 5 -123 28 -161 84 -185 289 -47 406
72 62 160 79 256 51z m664 -17 c23 -13 53 -38 65 -57 22 -32 23 -43 23 -217
l0 -184 -79 0 -80 0 -3 156 -3 156 -29 25 c-37 32 -90 26 -123 -12 -22 -25
-23 -35 -23 -176 l0 -149 -85 0 -85 0 0 235 0 235 85 0 c80 0 85 -1 85 -22 0
-20 1 -20 18 -5 57 52 157 58 234 15z m504 3 c42 -25 44 -25 44 -7 0 11 18 15
75 18 42 2 80 2 85 0 6 -2 10 -94 10 -238 l0 -234 -85 0 -85 0 0 27 0 26 -22
-21 c-51 -47 -160 -57 -235 -21 -153 74 -178 308 -44 420 21 18 54 39 72 46
47 18 141 10 185 -16z m484 -227 l0 -234 -80 0 -80 0 0 235 0 234 68 3 c37 2
73 1 80 -1 9 -2 12 -58 12 -237z m265 -49 c100 -48 65 -195 -46 -195 -84 0
-130 98 -78 164 36 46 72 55 124 31z"/>
<path d="M921 2583 c-41 -20 -65 -72 -56 -119 15 -81 127 -114 186 -55 24 24
29 38 29 75 0 87 -82 138 -159 99z"/>
<path d="M1552 2585 c-40 -18 -66 -73 -57 -121 15 -81 127 -114 186 -55 24 24
29 38 29 75 0 86 -79 137 -158 101z"/>
<path d="M2156 2609 c-48 -38 -35 -49 59 -49 67 0 85 3 85 14 0 23 -50 56 -85
56 -18 0 -44 -9 -59 -21z"/>
<path d="M3364 2591 c-68 -29 -87 -130 -35 -182 57 -57 158 -31 180 45 12 46
4 80 -28 110 -30 29 -84 41 -117 27z"/>
</g>
</svg>
